<?xml version="1.0" encoding="utf-8" standalone="yes"?>
<!DOCTYPE svg PUBLIC "-//W3C//DTD SVG 1.1//EN" "http://www.w3.org/Graphics/SVG/1.1/DTD/svg11.dtd">
<svg style="fill:none;stroke:none;fill-rule:evenodd;clip-rule:evenodd;stroke-linecap:round;stroke-linejoin:round;stroke-miterlimit:1.5;" version="1.1" xmlns="http://www.w3.org/2000/svg" xmlns:xlink="http://www.w3.org/1999/xlink" width="1056" height="588" viewBox="0 0 1056 588"><style class="text-font-style fontImports" data-font-family="Roboto">@import url(https://fonts.googleapis.com/css2?family=Roboto:wght@400;700&amp;amp;display=block);</style><g id="items" style="isolation: isolate"><g id="blend" style="mix-blend-mode: normal"><g id="g-root-cp_0r_g-0r_1haphsv1vrsa9v-fill" data-item-order="-435446" transform="translate(14.035003662109375, 156.56201171875)"><g id="cp_0r_g-0r_1haphsv1vrsa9v-fill-merged" stroke="none" fill="#4f92ff" fill-opacity="1"><g><path d="M825.945 87.022C825.341 86.195 824.748 85.389 824.164 84.604C821.777 88.646 819.328 91.299 816.847 93.435C817.627 94.23 818.409 95.041 819.194 95.867C822.757 97.704 829.63 98.168 840.434 98.897C855.461 99.912 878.093 101.44 910 107.892C889.248 93.058 825.932 87.022 825.932 87.022 M802.436 61.319C797.753 57.993 792.75 55.569 786.67 53.491C796.585 50.491 805.467 43.687 808.045 39.018C812.891 30.246 814.846 24.113 818.982 10C807.933 27.497 797.158 34.398 797.158 34.398C777.684 46.639 750.087 49.511 740.508 50.508C740.198 50.54 739.906 50.57 739.635 50.599C653.409 57.227 610.029 46.272 572.863 36.885C537.826 28.036 508.31 20.582 453.625 30.57C370.968 45.672 319.263 39.765 258.015 32.768 H257.787C210.733 27.364 178.243 47.599 144.811 68.419C137.137 73.199 129.414 78.009 121.453 82.547C121.231 82.971 120.909 83.331 120.459 83.595C119.957 83.89 119.425 84.007 118.887 83.996C114.871 86.239 110.79 88.407 106.621 90.459C106.745 92.21 106.447 94.004 104.946 94.718C103.343 95.478 101.626 94.584 100.278 93.457C97.672 94.635 95.03 95.763 92.344 96.833C91.626 97.534 90.813 98.293 90.17 98.861C90.212 98.95 90.212 99.062 90.212 99.062C90.585 101.18 91.098 106.137 88.612 107.071C86.232 107.96 83.563 105.296 82.705 103.437C81.71 103.793 80.649 104.079 79.518 104.27C78.984 105.309 77.452 106.552 75.369 107.72C74.161 108.4 72.725 109.077 71.223 109.638C70.996 111.804 70.246 115.443 67.691 115.686C65.317 115.914 63.779 113.278 62.987 111.389C61.987 111.431 60.973 111.387 60.015 111.269C58.909 112.019 56.888 112.611 54.564 112.991C54.107 113.066 53.637 113.133 53.161 113.192C52.715 115.358 51.626 118.596 49.177 118.616C46.535 118.64 45.222 115.244 44.692 113.329C43.704 113.207 42.851 113.022 42.207 112.77C41.139 113.319 39.119 113.618 36.806 113.7C32.965 113.841 28.282 113.397 25.744 112.507C23.123 111.582 21.448 109.389 20.815 107.293C13.16 106.952 10 106.259 10 106.259 V160C10 160 22 153.999 58 153.999C95.763 154.168 125.432 131.03 154.953 108.007C182.725 86.348 210.366 64.79 244.493 62.835C246.737 60.438 249.38 58.741 252.425 58.335C254.364 58.077 255.646 60.028 256.512 62.967C256.774 62.987 257.038 63.009 257.301 63.032C267.926 63.959 277.55 64.856 286.401 65.682C336.454 70.349 361.794 72.712 403.557 65.031C404.35 63.408 405.27 61.743 406.299 60.14C409.619 54.98 416.229 46.313 421.709 46.313C427.209 46.313 433.619 51.24 436.089 53.93C437.896 54.527 439.832 55.264 441.911 56.429C447.551 54.991 453.495 53.418 459.791 51.703C507.653 38.667 530.501 44.024 562.457 51.518C567.038 52.592 571.801 53.709 576.851 54.822C580.29 50.408 584.743 46 588.626 46C594.108 46 600.497 50.957 602.959 53.664C606.368 54.801 610.236 56.447 614.661 60.563C615.131 60.893 615.6 61.262 616.059 61.682C640.407 64.739 671.243 66.392 713.108 64.477C715.536 62.202 718.12 60.555 720.489 60.555C723.363 60.555 726.49 61.923 729.152 63.599C737.515 63.069 746.286 62.405 755.492 61.592C764.319 61.231 773.264 63.181 782.416 67.464C789.496 64.901 796.335 62.825 802.436 61.319 M825.945 87.022C825.341 86.195 824.748 85.389 824.164 84.604C821.777 88.646 819.328 91.299 816.847 93.435C817.627 94.23 818.409 95.041 819.194 95.867C822.757 97.704 829.63 98.168 840.434 98.897C855.461 99.912 878.093 101.44 910 107.892C889.248 93.058 825.932 87.022 825.932 87.022"></path></g></g></g><g id="g-root-cp_0q_g-0q_13zvgin1vrs8p0-fill" data-item-order="-435440" transform="translate(48.72430419921875, 213.86669921875)"><g id="cp_0q_g-0q_13zvgin1vrs8p0-fill-merged" stroke="none" fill="#4f92ff" fill-opacity="1"><g><path d="M93.371 13.917C94.573 15.555 96.905 18.098 99.291 17.212C101.866 16.249 101.425 12.057 101.043 10C98.589 11.651 95.718 13.159 93.371 13.917 M79.025 23.735C80.37 25.104 83.394 27.684 85.77 26.291C88.055 24.946 87.049 21.138 86.309 19.112C84.202 20.885 81.534 22.649 79.025 23.735 M63.982 34.553C65.295 36.073 67.899 38.531 70.256 37.413C72.658 36.271 71.979 32.365 71.422 30.293C69.222 32.063 66.53 33.7 63.993 34.555 M47.902 45.863C48.609 47.719 51.425 50.699 53.922 49.766C56.409 48.833 55.895 43.875 55.522 41.758C53.378 43.133 50.97 45.012 47.902 45.863 M28.298 54.084C29.089 55.973 30.627 58.609 33.002 58.382C35.556 58.139 36.307 54.499 36.534 52.333C33.961 53.286 31.094 53.969 28.298 54.084 M10 56.013C10.528 57.926 11.84 61.335 14.488 61.312C16.937 61.291 18.026 58.051 18.472 55.885C15.556 56.252 12.393 56.315 10 56.013"></path></g></g></g><g id="g-root-cp_0p_g-0p_qoey5b1vrsa9x-fill" data-item-order="-435436" transform="translate(24.562591552734375, 181.75732421875)"><g id="cp_0p_g-0p_qoey5b1vrsa9x-fill-merged" stroke="none" fill="#4f92ff" fill-opacity="1"><g><path d="M10.002 80.402C9.873 74.985 15.675 69.293 22.702 66.966C24.276 66.448 25.898 66.092 27.533 65.944C29.168 63.98 33.493 62.494 37.829 62.094C39.286 61.951 40.756 61.939 42.121 62.072C43.172 60.19 48.159 57.862 52.489 56.851C54.073 56.479 55.579 56.283 56.754 56.369C57.415 54.368 61.688 49.684 66.301 47.64C67.624 47.056 68.97 46.67 70.275 46.641C69.94 43.971 75.667 38.147 80.475 35.471C81.933 34.668 83.3 34.14 84.391 34.08C84.495 30.957 90.779 25.242 95.72 22.947C97.282 22.221 98.711 21.837 99.761 21.988C100.166 19.166 107.852 15.367 113.054 14.295C114.866 13.925 116.371 13.89 117.171 14.335C117.698 10.292 130.87 8.388 140.331 11.674C150.397 15.17 151.641 20.51 151.475 22.757C150.691 33.782 134.407 35.996 130.627 36.51 H130.545C130.599 37.385 129.546 38.696 127.923 40.073C124.141 43.289 117.329 46.947 114.363 46.502C114.279 47.305 113.303 48.598 111.854 49.99C108.872 52.855 103.867 56.184 100.143 56.817C100.032 57.771 99.054 59.154 97.59 60.611C94.422 63.759 88.969 67.228 84.95 67.302C84.82 68.213 83.953 69.544 82.511 70.958C82.423 71.044 82.334 71.131 82.244 71.22C79.45 73.96 75.326 78.003 68.991 79.075C68.457 80.114 66.925 81.357 64.842 82.524C60.822 84.787 54.695 86.717 49.488 86.074C48.381 86.824 46.361 87.416 44.037 87.795C39.634 88.517 34.134 88.536 31.68 87.575C30.612 88.124 28.591 88.423 26.279 88.504C22.438 88.646 17.754 88.202 15.217 87.312C11.867 86.13 10.064 82.878 10.002 80.402 M139.533 18.986C139.373 20.103 138.33 20.878 137.203 20.716C136.077 20.555 135.293 19.518 135.453 18.401C135.613 17.284 136.656 16.509 137.783 16.671C138.91 16.832 139.693 17.869 139.533 18.986"></path></g></g></g><g id="g-root-cp_0o_g-0o_hsrxwf1vrsb2m-fill" data-item-order="-435430" transform="translate(136.34494018554688, 157.307861328125)"><g id="cp_0o_g-0o_hsrxwf1vrsb2m-fill-merged" stroke="none" fill="#4f92ff" fill-opacity="1"><g><path d="M25.422 45.163C26.549 45.324 27.592 44.55 27.752 43.432C27.912 42.315 27.128 41.279 26.002 41.117C24.875 40.956 23.832 41.731 23.672 42.848C23.512 43.965 24.295 45.002 25.422 45.163"></path></g></g></g><g id="g-root-cp_0n_g-0n_ddkwv31vrs8p3-fill" data-item-order="-435424" transform="translate(251.67599487304688, 230.3668212890625)"><g id="cp_0n_g-0n_ddkwv31vrs8p3-fill-merged" stroke="none" fill="#4f92ff" fill-opacity="1"><g><path d="M24.131 51.79C23.526 77.895 12.143 74.664 10 101.263C16.768 105.106 34.877 106.974 42.929 98.504C65.144 87.459 59.988 51.791 55.203 48.002C55.341 40.295 50.683 29.686 46.302 27.711C45.167 24.222 39.916 20.189 37.317 19.352C34.866 14.371 27.111 9.422 21.128 10.055C21.531 12.438 21.648 14.563 21.319 15.766C21.616 16.216 21.892 16.807 22.157 17.483C24.226 17.612 27.917 18.224 28.437 20.918C28.49 21.197 28.501 21.456 28.469 21.713C28.268 23.731 25.828 25.213 23.982 26.061C24.056 26.823 24.12 27.574 24.152 28.304C24.247 30.762 24.077 32.949 23.547 34.248C23.886 35.246 24.109 36.309 24.279 37.383C26.358 37.79 29.307 38.789 29.572 41.236C29.859 43.887 26.358 45.433 24.183 46.142C24.003 47.269 23.791 48.353 23.525 49.373C23.939 50.145 24.152 50.952 24.131 51.79"></path></g></g></g><g id="g-root-cp_0m_g-0m_8xreqn1vrs9hc-fill" data-item-order="-435418" transform="translate(263.8330078125, 237.85205078125)"><g id="cp_0m_g-0m_8xreqn1vrs9hc-fill-merged" stroke="none" fill="#4f92ff" fill-opacity="1"><g><path d="M16.28 13.435C15.75 10.741 12.058 10.139 10 10C10.859 12.211 11.517 15.453 11.825 18.577C13.915 17.621 16.758 15.85 16.28 13.435 M17.416 33.752C17.15 31.305 14.201 30.306 12.122 29.898C12.568 32.775 12.472 35.834 12.037 38.658C14.201 37.96 17.702 36.403 17.426 33.752"></path></g></g></g><g id="g-root-cp_0l_g-0l_24ehr1vrsaa1-fill" data-item-order="-435414" transform="translate(229.04696655273438, 204.8751220703125)"><g id="cp_0l_g-0l_24ehr1vrsaa1-fill-merged" stroke="none" fill="#4f92ff" fill-opacity="1"><g><path d="M20.058 36.568C20.949 28.904 26.688 11.45 37.414 10.023C43.704 9.185 43.079 31.598 43.747 35.548C44.15 37.931 44.278 40.059 43.949 41.261C45.434 43.547 46.579 49.152 46.77 53.8C46.865 56.258 46.706 58.442 46.176 59.74C47.767 64.453 47.353 70.367 46.165 74.865C46.579 75.638 46.781 76.453 46.76 77.29C46.155 103.395 34.772 100.164 32.629 126.764C2.702 113.185 8.547 79.158 16.047 69.143C16.164 64.52 17.499 58.921 19.184 57.435C18.762 56.076 18.466 54.578 18.297 53.069C17.799 48.561 18.393 43.816 20.048 41.723C19.846 40.016 19.856 38.275 20.058 36.568"></path></g></g></g><g id="g-root-cp_0k_g-0k_1uneycf1vrsav6-fill" data-item-order="-435408" transform="translate(403.0469665527344, 192.875)"><g id="cp_0k_g-0k_1uneycf1vrsav6-fill-merged" stroke="none" fill="#4f92ff" fill-opacity="1"><g><path d="M20.347 153.911C33.507 153.571 45.897 150.651 55.197 143.761C64.327 136.991 68.487 126.991 68.487 112.361C68.487 108.921 67.667 102.898 67.667 102.898C70.417 96.118 69.247 91.6 69.557 84.77C69.737 80.9 69.877 76.89 69.947 72.95C70.027 68.52 70.027 64.19 69.917 60.25C69.807 56.1 69.567 52.363 69.187 49.423C68.717 45.863 68.017 43.446 67.057 42.786C67.107 39.476 66.637 36.799 65.757 34.409C64.907 32.079 63.687 30.019 62.227 27.899C61.177 26.369 60.007 25.297 58.817 24.467C54.377 20.377 50.497 18.747 47.077 17.617C44.607 14.927 38.197 10 32.697 10C27.217 10 20.607 18.667 17.287 23.827C15.207 27.067 13.577 30.557 12.527 33.447C9.177 43.207 11.717 50.673 11.717 50.673C9.777 57.953 8.557 85.823 13.297 121.583C13.787 125.263 14.247 128.513 14.677 131.413C15.197 134.853 15.677 137.783 16.127 140.263C17.347 147.013 18.297 150.482 18.987 152.242C19.897 154.572 20.347 153.911 20.347 153.911"></path></g></g></g><g id="g-root-cp_0j_g-0j_1hckx271vrs9ab-fill" data-item-order="-435402" transform="translate(572.5570068359375, 192.56201171875)"><g id="cp_0j_g-0j_1hckx271vrs9ab-fill-merged" stroke="none" fill="#4f92ff" fill-opacity="1"><g><path d="M60.485 88.712C62.15 93.482 63.585 98.452 64.781 103.423C64.791 103.453 64.801 103.463 64.801 103.463C67.542 96.641 66.526 92.083 66.835 85.211C67.014 81.317 67.163 77.305 67.233 73.341C67.312 68.884 67.313 64.501 67.204 60.537C67.094 56.361 66.855 52.618 66.476 49.66C66.007 46.078 65.32 43.633 64.363 42.969C64.413 39.638 63.924 36.967 63.047 34.563C62.2 32.218 61.004 30.147 59.549 28.014C58.502 26.474 57.326 25.398 56.14 24.563C51.715 20.447 47.846 18.801 44.437 17.664C41.975 14.957 35.587 10 30.105 10C24.643 10 18.054 18.721 14.745 23.913C12.671 27.173 11.047 30.684 10 33.592C10.469 34.367 11.038 35.107 11.696 35.822C15.075 39.524 20.875 42.553 27.982 45.773C28.869 46.175 29.766 46.586 30.693 46.989C34.441 48.649 37.012 49.947 38.846 51.144C41.677 52.996 42.754 54.59 43.651 56.864C44.04 57.85 44.408 58.987 44.867 60.305C44.867 60.305 47.777 62.922 48.355 67.097C48.385 67.318 48.404 67.576 48.424 67.807C48.424 67.807 52.62 69.819 57.355 80.686C58.481 83.272 59.519 85.945 60.485 88.712"></path></g></g></g><g id="g-root-cp_0i_g-0i_18gxwtb1vrsa30-fill" data-item-order="-435396" transform="translate(588.2849731445312, 250.366943359375)"><g id="cp_0i_g-0i_18gxwtb1vrsa30-fill-merged" stroke="none" fill="#4f92ff" fill-opacity="1"><g><path d="M53.727 83.097C53.956 75.862 53.039 65.499 50.956 54.461C48.953 43.836 45.853 32.589 41.627 22.889C36.893 12.012 32.696 10 32.696 10C32.696 10 34.569 22.265 27.513 32.709C20.366 43.285 14.465 52.692 10 61.054C13.249 64.173 17.227 66.638 18.403 67.946C19.251 68.882 19.968 69.787 20.596 70.693C25.49 77.686 24.931 83.781 37.191 91.619C51.026 100.453 53.328 95.885 53.727 83.097"></path></g></g></g><g id="g-root-cp_0h_g-0h_18gxwtb1vrsa31-fill" data-item-order="-435390" transform="translate(570.0469360351562, 216.156005859375)"><g id="cp_0h_g-0h_18gxwtb1vrsa31-fill-merged" stroke="none" fill="#4f92ff" fill-opacity="1"><g><path d="M10.656 71.528C11.723 75.1 13.198 78.473 15.63 82.035C18.351 86.02 22.278 90.236 28.239 95.267C32.704 86.905 38.605 77.497 45.751 66.922C52.808 56.478 50.934 44.213 50.934 44.213C50.605 39.635 47.376 36.727 47.376 36.727C45.153 30.388 45.283 28.758 33.212 23.405C32.285 22.993 31.378 22.59 30.481 22.188C21.999 18.344 15.381 14.759 12.52 10C9.181 19.82 11.713 27.326 11.713 27.326C10.298 32.669 9.271 49.07 10.656 71.528"></path></g></g></g><g id="g-root-cp_0g_g-0g_1414eov1vrsava-fill" data-item-order="-435384" transform="translate(703.0470581054688, 207.116943359375)"><g id="cp_0g_g-0g_1414eov1vrsava-fill-merged" stroke="none" fill="#4f92ff" fill-opacity="1"><g><path d="M45.911 97.67C44.195 93.946 42.793 90.077 41.675 86.148C40.224 81.037 39.292 75.886 38.783 71.028C36.9 86.305 33.87 91.671 33.87 91.671C33.87 91.671 33.968 78.711 31.409 67.256C29.222 57.482 27.064 49.658 29.368 44.752C30.79 41.741 35.801 40.139 38.468 43.823C39.4 45.113 40.038 47.047 40.145 49.803C40.4 49.119 41.626 46.343 46.117 42.219C48.039 40.459 50.549 38.448 53.844 36.258C56.619 34.411 59.541 32.632 62.542 30.931C61.914 29.778 61.218 28.635 60.433 27.501C59.404 26.006 58.257 24.959 57.091 24.148C52.737 20.151 48.931 18.552 45.578 17.448C43.156 14.818 36.87 10 31.477 10C26.103 10 19.622 18.479 16.367 23.523C14.327 26.689 12.728 30.105 11.699 32.93C8.414 42.469 10.904 49.76 10.904 49.76C9.228 74.557 25.486 104.678 29.467 106.789C34.556 106.115 40.744 101.941 45.901 97.67"></path></g></g></g><g id="g-root-cp_0f_g-0f_qqaden1vrs9af-fill" data-item-order="-435378" transform="translate(709.52099609375, 215.234130859375)"><g id="cp_0f_g-0f_qqaden1vrs9af-fill-merged" stroke="none" fill="#4f92ff" fill-opacity="1"><g><path d="M32.318 62.919C31.425 54.328 31.935 46.675 33.622 41.856C33.622 41.856 33.642 41.895 33.691 41.964C33.436 31.027 24.826 32.542 22.904 36.637C20.6 41.544 22.757 49.363 24.944 59.137C27.503 70.592 27.405 83.552 27.405 83.552C27.405 83.552 30.445 78.196 32.318 62.919"></path></g></g></g><g id="g-root-cp_0d_g-0d_magva71vrsa2o-fill" data-item-order="-435372" transform="translate(731.39697265625, 204.875)"><g id="cp_0d_g-0d_magva71vrsa2o-fill-merged" stroke="none" fill="#4f92ff" fill-opacity="1"><g><path d="M67.336 89.836C52.941 110.019 37.849 128.335 24.317 111.212L23.66 110.393C10.481 92.526 7.637 63.967 11.736 52.219C11.736 52.219 13.266 46.641 25.494 38.499C36.408 31.237 49.459 25.029 61.981 20.288C74.974 15.372 87.408 12.03 96.282 10.759C111.952 8.501 118.051 10.358 110.275 29.212C103.382 45.925 95.812 46.551 88.35 54.057C87.398 55.025 86.418 56.087 85.467 57.329C83.28 60.173 78.926 72.898 71.758 75.948C67.729 77.662 62.838 76.552 55.882 74.169C62.433 78.694 70.415 85.516 67.336 89.836"></path></g></g></g><g id="g-root-cp_0c_g-0c_detv1b1vrsavd-fill" data-item-order="-435366" transform="translate(919.60400390625, 118.5)"><g id="cp_0c_g-0c_detv1b1vrsavd-fill-merged" stroke="none" fill="#4f92ff" fill-opacity="1"><g><path d="M27.442 58.047C27.479 56.897 28.013 52.171 33.144 44.374C32.864 41.383 30.611 38.055 27.442 38.055C24.273 38.055 22.03 41.383 21.74 44.374C26.872 52.162 27.405 56.888 27.442 58.047 M27.442 58.047C27.386 61.936 26.058 67.218 23.675 72.968C25.376 83.635 27.442 92.628 27.442 92.628C27.442 92.628 29.508 83.635 31.209 72.968C28.835 67.218 27.498 61.936 27.442 58.047"></path></g></g></g><g id="g-root-cp_0b_g-0b_8zmtzz1vrs8hu-fill" data-item-order="-435360" transform="translate(857.0469360351562, 98)"><g id="cp_0b_g-0b_8zmtzz1vrs8hu-fill-merged" stroke="none" fill="#4f92ff" fill-opacity="1"><g><path d="M120.268 127.072C137.823 137.945 145.264 116.76 151.499 94.145C152.835 89.302 143.534 85.824 136.262 83.908C143.311 83.791 147.865 83.218 150.909 80.365C156.284 75.335 156.022 62.602 157.041 59.367C157.49 57.956 157.995 56.694 158.537 55.525C162.725 46.438 169.24 43.437 169.932 26.338C170.717 7.042 164.734 7.36 151.564 14.428C144.104 18.429 134.158 25.411 124.222 33.984C114.65 42.239 105.087 51.98 97.758 61.965C90.911 71.302 90.082 76.649 89.996 78.164C90.012 78.465 90 78.615 90 78.615C89.99 78.615 89.978 78.465 89.996 78.164C89.911 76.65 89.09 71.302 82.241 61.965C74.913 51.98 65.35 42.239 55.778 33.984C45.842 25.411 35.896 18.429 28.436 14.428C15.266 7.36 9.283 7.042 10.068 26.338C10.76 43.437 17.257 46.436 21.444 55.523C21.987 56.692 22.5 57.956 22.949 59.367C23.968 62.602 23.706 75.335 29.081 80.365C32.098 83.193 36.783 83.784 43.729 83.908C36.457 85.824 27.156 89.302 28.493 94.145C34.728 116.76 42.178 137.935 59.733 127.062C60.022 126.894 60.293 126.736 60.583 126.539C78.054 114.9 89.832 90.397 90 78.617C90.168 90.397 101.946 114.9 119.417 126.539C119.52 126.609 120.268 126.984 120.268 127.072"></path></g></g></g><g id="g-root-tx_modlesia_dikpjz1vrs8w2-fill" data-item-order="0" transform="translate(566, 352.39990234375)"><g id="tx_modlesia_dikpjz1vrs8w2-fill-merged" stroke="none" fill="#4f92ff" fill-opacity="1"><g><text style="font: bold 15px Roboto, sans-serif; white-space: pre;" transform="translate(52, 22)" font-weight="bold" font-size="15px" font-family="Roboto, sans-serif"><tspan x="-38.13" y="8.6" dominant-baseline="ideographic">Modèles IA</tspan></text></g></g></g><g id="g-root-tx_valuatio_hzn5un1vrsa9y-fill" data-item-order="0" transform="translate(885, 232.39990234375)"><g id="tx_valuatio_hzn5un1vrsa9y-fill-merged" stroke="none" fill="#4f92ff" fill-opacity="1"><g><text style="font: bold 15px Roboto, sans-serif; white-space: pre;" transform="translate(58, 28)" font-weight="bold" font-size="15px" font-family="Roboto, sans-serif"><tspan x="-45.36" y="-0.4" dominant-baseline="ideographic">Évaluation et </tspan><tspan x="-43.9" y="17.6" dominant-baseline="ideographic">déploiement</tspan></text></g></g></g><g id="g-root-tx_besoinse_18itc2n1vrs93g-fill" data-item-order="0" transform="translate(50, 340.39990234375)"><g id="tx_besoinse_18itc2n1vrs93g-fill-merged" stroke="none" fill="#4f92ff" fill-opacity="1"><g><text style="font: bold 15px Roboto, sans-serif; white-space: pre;" transform="translate(52, 28)" font-weight="bold" font-size="15px" font-family="Roboto, sans-serif"><tspan x="-36.14" y="-0.4" dominant-baseline="ideographic">Besoins et </tspan><tspan x="-38.43" y="17.6" dominant-baseline="ideographic">indicateurs</tspan></text></g></g></g><g id="g-root-tx_collecte_4l2a1r1vrsaoe-fill" data-item-order="0" transform="translate(206, 346.39990234375)"><g id="tx_collecte_4l2a1r1vrsaoe-fill-merged" stroke="none" fill="#4f92ff" fill-opacity="1"><g><text style="font: bold 15px Roboto, sans-serif; white-space: pre;" transform="translate(70, 22)" font-weight="bold" font-size="15px" font-family="Roboto, sans-serif"><tspan x="-57.11" y="8.6" dominant-baseline="ideographic">Collecte des avis</tspan></text></g></g></g><g id="g-root-tx_tableaud_1d1r7mn1vrs9ho-fill" data-item-order="0" transform="translate(710, 328.39990234375)"><g id="tx_tableaud_1d1r7mn1vrs9ho-fill-merged" stroke="none" fill="#4f92ff" fill-opacity="1"><g><text style="font: bold 15px Roboto, sans-serif; white-space: pre;" transform="translate(70, 28)" font-weight="bold" font-size="15px" font-family="Roboto, sans-serif"><tspan x="-55.8" y="-0.4" dominant-baseline="ideographic">Tableau de bord </tspan><tspan x="-32.4" y="17.6" dominant-baseline="ideographic">interactif</tspan></text></g></g></g><g id="g-root-tx_nettoyag_18k2a8v1vrsb9k-fill" data-item-order="0" transform="translate(386, 352.39990234375)"><g id="tx_nettoyag_18k2a8v1vrsb9k-fill-merged" stroke="none" fill="#4f92ff" fill-opacity="1"><g><text style="font: bold 15px Roboto, sans-serif; white-space: pre;" transform="translate(64, 28)" font-weight="bold" font-size="15px" font-family="Roboto, sans-serif"><tspan x="-43.41" y="-0.4" dominant-baseline="ideographic">Nettoyage et </tspan><tspan x="-46.37" y="17.6" dominant-baseline="ideographic">prétraitement</tspan></text></g></g></g><g id="g-root-cp_0r_g-0r_1haphsv1vrsa9v-stroke" data-item-order="-435446" transform="translate(14.035003662109375, 156.56201171875)"><g id="cp_0r_g-0r_1haphsv1vrsa9v-stroke" fill="none" stroke-linecap="round" stroke-linejoin="round" stroke-miterlimit="4" stroke="#ffffff" stroke-width="1" stroke-opacity="1"><g><path d="M 825.944808 87.0219C 825.341008 86.1953 824.747608 85.3894 824.163708 84.6036C 821.776708 88.6463 819.327908 91.2986 816.847108 93.4349C 817.627308 94.2305 818.409408 95.041 819.193508 95.8666C 822.757008 97.7036 829.630208 98.1678 840.433708 98.8973C 855.461208 99.9121 878.093308 101.4405 910.000108 107.8915C 889.247808 93.0584 825.932408 87.0219 825.932408 87.0219L 825.944808 87.0219ZM 729.151708 63.5994C 737.515408 63.0695 746.285508 62.4051 755.491908 61.592C 764.318708 61.2311 773.263708 63.1814 782.415708 67.4638C 789.495508 64.9011 796.335008 62.8254 802.436308 61.3193C 797.753108 57.9926 792.750508 55.5692 786.670008 53.4913C 796.585308 50.4911 805.466708 43.6866 808.045108 39.0182C 812.890608 30.2456 814.846208 24.1131 818.981708 10C 807.932908 27.4973 797.158308 34.3979 797.158308 34.3979C 777.684008 46.6387 750.087008 49.5109 740.507608 50.508C 740.197508 50.5402 739.906408 50.5705 739.634908 50.5991C 653.409208 57.2274 610.029508 46.2717 572.863208 36.8853C 537.825608 28.0364 508.310208 20.5822 453.625208 30.5696C 370.968008 45.672 319.262608 39.765 258.015008 32.7678L 257.787008 32.7417C 210.733008 27.3639 178.242508 47.5987 144.811408 68.4194C 137.137408 73.1987 129.413808 78.0089 121.453208 82.5472M 713.107808 64.4773C 671.243008 66.3919 640.406608 64.7393 616.059008 61.6825M 576.851008 54.8218C 571.801108 53.709 567.038308 52.5921 562.462308 51.519L 562.456808 51.5178C 530.500908 44.0243 507.653208 38.6666 459.791108 51.7032C 453.494808 53.4185 447.550608 54.9908 441.910708 56.4291M 403.557208 65.031C 361.794108 72.7118 336.454208 70.3489 286.401208 65.6816C 277.549908 64.8562 267.925708 63.9588 257.301208 63.0321C 257.037608 63.0091 256.774408 62.9873 256.511508 62.9666M 244.493108 62.8354C 210.365908 64.7902 182.724508 86.3475 154.952708 108.0067C 125.431608 131.03 95.763008 154.1684 58.000008 153.9991C 22.000008 153.9991 10.000008 160 10.000008 160M 10.000008 106.2594C 10.000008 106.2594 13.160008 106.9522 20.814608 107.2928M 92.344108 96.8332C 95.029608 95.7634 97.672408 94.635 100.277908 93.4566M 106.620708 90.4592C 110.789908 88.4065 114.870808 86.2393 118.887208 83.9956"></path></g></g></g><g id="g-root-cp_0q_g-0q_13zvgin1vrs8p0-stroke" data-item-order="-435440" transform="translate(48.72430419921875, 213.86669921875)"><g id="cp_0q_g-0q_13zvgin1vrs8p0-stroke" fill="none" stroke-linecap="round" stroke-linejoin="round" stroke-miterlimit="4" stroke="#ffffff" stroke-width="1" stroke-opacity="1"><g><path d="M 93.3715 13.9173C 94.5734 15.5553 96.9054 18.0983 99.2915 17.2119C 101.8655 16.2491 101.4251 12.0572 101.0431 10C 98.5892 11.6509 95.7183 13.1594 93.3715 13.9173ZM 79.0254 23.7349C 80.37 25.1043 83.3941 27.6845 85.7696 26.2908C 88.0548 24.9461 87.0492 21.1377 86.3089 19.1117C 84.2018 20.8845 81.5337 22.6492 79.0254 23.7349ZM 63.9825 34.5532C 65.2951 36.0728 67.8995 38.531 70.2563 37.4133C 72.6582 36.2711 71.979 32.3649 71.4222 30.293C 69.2219 32.0628 66.5304 33.7003 63.9927 34.5547L 63.9825 34.5532ZM 47.9015 45.8628C 48.6093 47.7191 51.4253 50.699 53.9221 49.7665C 56.4087 48.8326 55.8954 43.8755 55.5222 41.7577C 53.3784 43.133 50.9696 45.0121 47.9015 45.8628ZM 28.2979 54.0845C 29.0891 55.9733 30.627 58.609 33.002 58.3816C 35.5561 58.1385 36.3066 54.4992 36.5337 52.3331C 33.9611 53.2857 31.094 53.9691 28.2979 54.0845ZM 10 56.0134C 10.5275 57.9263 11.8402 61.3349 14.4878 61.3117C 16.9372 61.291 18.026 58.0511 18.4717 55.8854C 15.5562 56.2521 12.3929 56.315 10 56.0134Z"></path></g></g></g><g id="g-root-cp_0p_g-0p_qoey5b1vrsa9x-stroke" data-item-order="-435436" transform="translate(24.562591552734375, 181.75732421875)"><g id="cp_0p_g-0p_qoey5b1vrsa9x-stroke" fill="none" stroke-linecap="round" stroke-linejoin="round" stroke-miterlimit="4" stroke="#ffffff" stroke-width="1" stroke-opacity="1"><g><path d="M 22.702231 66.966023C 15.674831 69.293123 9.872631 74.985323 10.002131 80.402323C 10.063831 82.878123 11.867431 86.129923 15.216831 87.311723C 17.754431 88.201723 22.438031 88.645723 26.278931 88.504423C 28.591331 88.422923 30.612131 88.123823 31.679731 87.574923C 34.134331 88.535523 39.634231 88.516723 44.037131 87.795423C 46.360931 87.416123 48.381231 86.823623 49.488131 86.073923C 54.694931 86.716723 60.822131 84.787023 64.842031 82.524423C 66.924831 81.357123 68.457031 80.113523 68.990931 79.075223C 75.531131 77.968623 79.714131 73.695022 82.511131 70.957922C 83.952631 69.543823 84.820031 68.212723 84.950431 67.302423C 88.969231 67.227923 94.421831 63.759023 97.590031 60.610623C 99.054031 59.154022 100.031531 57.771423 100.142931 56.816623L 100.144331 56.806523C 100.144031 56.809823 100.143331 56.813223 100.142931 56.816623C 103.866831 56.183823 108.872331 52.855423 111.854331 49.989923C 113.303031 48.597623 114.279231 47.305123 114.363131 46.501723C 117.328731 46.947323 124.140931 43.288723 127.922531 40.073323C 129.546131 38.695723 130.598631 37.385123 130.545531 36.520823L 130.627231 36.509723C 134.407431 35.995722 150.691231 33.782123 151.475231 22.756623C 151.641031 20.509523 150.396831 15.170222 140.331131 11.673923C 130.870231 8.388223 117.698131 10.291923 117.170931 14.334822C 116.370531 13.889923 114.866531 13.925323 113.054131 14.295222C 107.851531 15.366523 100.165731 19.165722 99.761431 21.987723C 98.710731 21.837123 97.270431 22.228323 95.708931 22.954223C 90.768131 25.250022 84.495331 30.957023 84.391331 34.080022C 83.300031 34.140423 81.933231 34.667923 80.475231 35.470523C 75.667331 38.146623 69.939631 43.970823 70.275431 46.640723C 68.969931 46.670423 67.623831 47.055623 66.301131 47.640323C 61.688031 49.683723 57.415031 54.368223 56.753631 56.368823C 55.579131 56.283123 54.072531 56.479423 52.488931 56.851223C 48.159131 57.861723 43.171531 60.189523 42.120931 62.072423C 40.755531 61.938723 39.286331 61.951323 37.829231 62.093523C 33.493131 62.494123 29.168131 63.981223 27.533331 65.945623C 25.898531 66.093223 24.275531 66.448223 22.702231 66.966023ZM 26.278931 88.504423C 25.015831 87.002223 23.845531 84.853023 23.040131 81.754623C 23.846931 84.842923 25.026031 87.003723 26.278931 88.504423ZM 22.702231 66.966023C 21.573531 71.428523 22.011231 77.819023 23.040131 81.754623M 27.533331 65.945623C 25.230331 68.722523 25.231431 85.061323 31.679731 87.574923M 37.829231 62.093523C 36.731731 67.210823 37.826831 77.586823 40.944031 83.659023C 41.888231 85.497423 42.956631 86.835423 44.037131 87.795423M 42.120931 62.072423C 40.553831 64.872223 41.866731 85.141623 49.498531 86.080323M 52.488931 56.851223C 51.856831 62.788723 55.408831 73.596823 60.010231 78.901023L 60.011631 78.890923C 61.664131 80.799823 63.307231 81.902023 64.842031 82.524423M 56.753631 56.368823C 55.272331 60.822123 61.107431 80.402323 68.990931 79.075223M 66.301131 47.640323C 67.310931 51.346023 73.857831 67.994223 82.511131 70.957922M 84.950431 67.302423C 78.603231 67.425223 70.539431 48.794623 70.275431 46.640723M 80.475231 35.470523C 81.182931 38.596322 83.646431 43.563523 84.821231 45.827223C 87.106531 50.221523 89.736031 54.974823 93.496531 58.228323C 94.867131 59.415623 96.233131 60.199422 97.590031 60.610623C 99.059131 59.148922 100.038731 57.761623 100.144331 56.806523M 84.391331 34.080022C 84.310131 36.390822 93.805631 57.889923 100.131631 56.824823M 111.854331 49.989923C 109.666331 48.984823 106.932731 47.138123 101.691131 37.510123L 101.702831 37.501423C 100.332631 35.003323 96.284931 27.289423 95.708931 22.954223C 96.284931 27.289423 100.333131 35.002023 101.691631 37.508823M 114.363131 46.501723C 108.952131 45.685123 99.357131 24.809623 99.761431 21.987723M 113.054131 14.295222C 112.468431 21.870323 119.542631 32.803623 124.123031 37.310023C 125.108831 38.277023 126.403731 39.411923 127.922531 40.073323M 117.170931 14.334822C 116.262731 21.254723 126.935131 37.015023 130.545531 36.520823C 130.572031 36.517223 130.599331 36.513423 130.627231 36.509723"></path></g></g></g><g id="g-root-cp_0o_g-0o_hsrxwf1vrsb2m-stroke" data-item-order="-435430" transform="translate(136.34494018554688, 157.307861328125)"><g id="cp_0o_g-0o_hsrxwf1vrsb2m-stroke" fill="none" stroke-linecap="round" stroke-linejoin="round" stroke-miterlimit="4" stroke="#ffffff" stroke-width="1" stroke-opacity="1"><g><path d="M 25.421972 45.162997C 26.548772 45.324497 27.591972 44.549697 27.752072 43.432497C 27.912172 42.315297 27.128472 41.278697 26.001672 41.117297C 24.874872 40.955797 23.831672 41.730597 23.671572 42.847797C 23.511572 43.964997 24.295172 45.001597 25.421972 45.162997ZM 30.787607 12.723996C 23.552307 10.035796 16.573907 15.435596 13.816107 34.683196M 19.850907 10.000596C 12.302907 9.930696 7.652907 17.026596 11.225507 35.106596"></path></g></g></g><g id="g-root-cp_0n_g-0n_ddkwv31vrs8p3-stroke" data-item-order="-435424" transform="translate(251.67599487304688, 230.3668212890625)"><g id="cp_0n_g-0n_ddkwv31vrs8p3-stroke" fill="none" stroke-linecap="round" stroke-linejoin="round" stroke-miterlimit="4" stroke="#ffffff" stroke-width="1" stroke-opacity="1"><g><path d="M 24.1307 51.789622C 23.526 77.894922 12.1429 74.664022 10 101.263122C 16.7683 105.105922 34.8772 106.973622 42.9291 98.504422C 65.1436 87.459022 59.988 51.790822 55.2035 48.001722C 55.3414 40.294622 50.6834 29.686122 46.3021 27.711022C 45.167 24.222422 39.9161 20.188922 37.317 19.351722C 34.8664 14.371022 27.1112 9.421722 21.1279 10.055022C 21.5311 12.438022 21.6477 14.563422 21.3189 15.765622C 21.6159 16.216422 21.8918 16.806822 22.157 17.483022C 24.2256 17.611922 27.9174 18.223722 28.4373 20.918022C 28.4903 21.197022 28.5012 21.455522 28.4694 21.713222C 28.2678 23.731222 25.8279 25.212522 23.982 26.060522C 24.0562 26.822622 24.1199 27.574022 24.1517 28.303922C 24.2472 30.762022 24.077 32.949322 23.5466 34.248122C 23.8861 35.246422 24.1089 36.309022 24.2786 37.382522C 26.3579 37.790422 29.3071 38.788622 29.5723 41.236022C 29.8587 43.887322 26.3579 45.433022 24.1831 46.141522C 24.0028 47.268622 23.7906 48.352722 23.5254 49.372522C 23.9391 50.145322 24.1519 50.952322 24.1307 51.789622ZM 37.317 19.351722C 35.3862 19.942022 32.0976 21.069122 28.4694 21.713222C 32.0869 21.069122 35.3756 19.942022 37.317 19.351722ZM 24.1307 51.789622C 35.2181 47.605122 49.3739 62.586422 49.6189 79.424722M 24.1307 51.789622C 24.4893 50.750822 25.8329 49.742522 27.7792 48.854522M 24.1307 51.789622C 35.2162 47.599822 49.3673 62.588822 49.6189 79.424722M 24.1307 51.789622C 24.4853 50.750822 25.8283 49.742922 27.7792 48.854522M 42.9291 98.504422C 47.7972 92.511622 49.7147 85.833522 49.6189 79.424722M 55.2035 48.001722C 49.9507 43.965022 34.8523 45.627522 27.7792 48.854522M 46.3021 27.711022C 38.3244 33.131822 34.7811 32.949322 23.5466 34.248122"></path></g></g></g><g id="g-root-cp_0m_g-0m_8xreqn1vrs9hc-stroke" data-item-order="-435418" transform="translate(263.8330078125, 237.85205078125)"><g id="cp_0m_g-0m_8xreqn1vrs9hc-stroke" fill="none" stroke-linecap="round" stroke-linejoin="round" stroke-miterlimit="4" stroke="#ffffff" stroke-width="1" stroke-opacity="1"><g><path d="M 16.2803 13.4349C 15.7499 10.7407 12.0581 10.1395 10 10C 10.8593 12.2112 11.517 15.4529 11.8247 18.5766C 13.9146 17.6212 16.7577 15.8501 16.2803 13.4349ZM 17.4157 33.752C 17.1505 31.3046 14.2013 30.3063 12.122 29.8984C 12.5675 32.7752 12.4721 35.8344 12.0371 38.6575C 14.2013 37.9598 17.7021 36.4033 17.4263 33.752L 17.4157 33.752Z"></path></g></g></g><g id="g-root-cp_0l_g-0l_24ehr1vrsaa1-stroke" data-item-order="-435414" transform="translate(229.04696655273438, 204.8751220703125)"><g id="cp_0l_g-0l_24ehr1vrsaa1-stroke" fill="none" stroke-linecap="round" stroke-linejoin="round" stroke-miterlimit="4" stroke="#ffffff" stroke-width="1" stroke-opacity="1"><g><path d="M 20.057931 36.568178C 20.949031 28.904078 26.688231 11.450378 37.413531 10.022778C 43.704431 9.185478 43.078531 31.598278 43.746931 35.548478C 44.150031 37.931478 44.277531 40.058778 43.948731 41.260978C 45.433931 43.547278 46.578831 49.151978 46.769831 53.799778C 46.865331 56.257978 46.706031 58.441578 46.175631 59.740378C 47.766931 64.452678 47.353131 70.367178 46.165031 74.864778C 46.578731 75.637578 46.780731 76.452678 46.759531 77.289978C 46.154831 103.395278 34.771731 100.164278 32.628831 126.763478C 2.701931 113.184778 8.546831 79.158378 16.047131 69.143478C 16.163731 64.519978 17.498831 58.920878 19.184131 57.435378C 18.762031 56.075678 18.465531 54.567778 18.296331 53.059178C 17.797731 48.550878 18.392531 43.815678 20.047531 41.722578C 19.845931 40.015778 19.856331 38.274878 20.057931 36.568178ZM 20.057931 36.568178C 24.354431 34.453578 32.003231 33.508978 36.214831 33.702178C 39.524731 33.852478 41.954031 34.582378 43.746931 35.548478M 20.047531 41.722578C 22.381431 38.770678 40.034131 35.228378 43.948731 41.260978M 18.296331 53.059178C 23.261131 50.826478 35.100331 49.699378 41.921631 51.556378C 43.990331 52.125278 45.560431 52.908878 46.769831 53.799778M 19.184131 57.435378C 21.698331 55.234878 43.608331 52.162078 46.175631 59.740378M 46.165031 74.864778C 42.876331 68.628278 25.605931 64.881278 17.097831 68.627478L 16.047131 69.143478"></path></g></g></g><g id="g-root-cp_0k_g-0k_1uneycf1vrsav6-stroke" data-item-order="-435408" transform="translate(403.0469665527344, 192.875)"><g id="cp_0k_g-0k_1uneycf1vrsav6-stroke" fill="none" stroke-linecap="round" stroke-linejoin="round" stroke-miterlimit="4" stroke="#ffffff" stroke-width="1" stroke-opacity="1"><g><path d="M 20.346931 153.9106C 33.506931 153.5706 45.896931 150.6506 55.196931 143.7606C 64.326931 136.9906 68.486931 126.9906 68.486931 112.3606C 68.486931 108.9206 67.666531 102.8978 67.666531 102.8978C 70.416531 96.1178 69.246831 91.6 69.556831 84.77C 69.736831 80.9 69.876831 76.89 69.946831 72.95C 70.026831 68.52 70.026831 64.19 69.916831 60.25C 69.806831 56.1 69.566631 52.3632 69.186631 49.4232C 68.716631 45.8632 68.016931 43.4462 67.056931 42.7862C 67.106931 39.4762 66.637031 36.7988 65.757031 34.4088C 64.907031 32.0788 63.687031 30.0187 62.227031 27.8987C 61.177031 26.3687 60.007431 25.2972 58.817431 24.4672C 54.377431 20.3772 50.497331 18.7472 47.077331 17.6172C 44.607331 14.9272 38.197131 10 32.697131 10C 27.217131 10 20.607431 18.6672 17.287431 23.8272C 15.207431 27.0672 13.577331 30.5572 12.527331 33.4472C 9.177331 43.2072 11.716831 50.6731 11.716831 50.6731C 9.776831 57.9531 8.556831 85.8231 13.296831 121.5831C 13.786831 125.2631 14.247031 128.5125 14.677031 131.4125C 15.197031 134.8525 15.677031 137.7825 16.127031 140.2625C 17.347031 147.0125 18.297031 150.4825 18.987031 152.2425C 19.897031 154.5725 20.346931 153.9106 20.346931 153.9106ZM 20.346931 153.9106C 33.506931 153.5706 45.896931 150.6506 55.196931 143.7606C 64.326931 136.9906 68.486931 126.9906 68.486931 112.3606C 68.486931 108.9206 67.656931 102.8906 67.656931 102.8906C 59.066931 126.9506 28.916931 135.9106 20.336931 153.9106L 20.346931 153.9106ZM 20.346331 153.9131C 28.926331 135.9131 59.066331 126.9531 67.666331 102.8931C 67.666331 102.8931 68.396331 100.6031 62.806331 91.3331C 61.666331 89.4431 58.076331 83.0731 58.076331 83.0731C 56.686331 72.8131 51.076331 67.4531 51.076331 67.4531C 51.076331 67.4531 52.956331 79.6431 45.876331 90.0331C 26.536331 118.3831 16.236331 138.2731 18.986331 152.2531C 19.896331 154.5831 20.356331 153.9131 20.356331 153.9131L 20.346331 153.9131ZM 45.877031 90.0225C 52.957031 79.6425 51.076331 67.4531 51.076331 67.4531C 50.746331 62.9031 47.507031 60.0125 47.507031 60.0125C 45.277031 53.7125 45.407031 52.0925 33.297031 46.7725C 32.367031 46.3625 31.457031 45.9625 30.557031 45.5625C 18.897031 65.0425 13.797031 108.6525 14.677031 131.4125C 15.197031 134.8525 15.677031 137.7825 16.127031 140.2625C 17.347031 147.0125 18.297031 150.4825 18.987031 152.2425C 16.237031 138.2625 26.537031 118.3725 45.877031 90.0225ZM 14.677031 131.4125C 13.797031 108.6525 18.896831 65.0431 30.556831 45.5531C 22.046831 41.7331 15.396831 38.1831 12.526831 33.4531C 9.176831 43.2131 11.716831 50.6731 11.716831 50.6731C 9.776831 57.9531 8.556831 85.8231 13.296831 121.5831C 13.786831 125.2631 14.247031 128.5125 14.677031 131.4125ZM 41.466931 50.9063C 45.656931 48.3263 66.026931 42.0862 67.056931 42.7862C 67.106931 39.4762 66.626931 36.7963 65.746931 34.4063C 63.806931 36.4662 60.556931 38.6762 55.476931 40.5262C 49.056931 42.8662 40.036931 45.1862 30.546931 45.5462C 31.436931 45.9462 32.356931 46.3562 33.286931 46.7562C 37.046931 48.4062 39.626931 49.6962 41.466931 50.8862L 41.466931 50.9063ZM 14.217031 35.6588C 17.607031 39.3388 23.427031 42.3488 30.557031 45.5488C 40.057031 45.1788 49.067031 42.8687 55.487031 40.5287C 60.557031 38.6787 63.817031 36.4688 65.757031 34.4088C 64.907031 32.0788 63.687031 30.0187 62.227031 27.8987C 61.177031 26.3687 59.997031 25.2987 58.807031 24.4688C 53.597031 27.5988 45.027031 32.0687 35.577031 34.2487C 26.227031 36.3987 19.527031 36.2788 14.207031 35.6588M 47.077331 17.6172C 43.607331 19.4772 38.817331 21.5472 32.917331 22.8872C 25.787331 24.5072 21.047431 24.5372 17.287431 23.8272C 15.207431 27.0672 13.577331 30.5572 12.527331 33.4472C 12.997331 34.2172 13.557331 34.9472 14.217331 35.6572C 19.537331 36.2772 26.237331 36.3972 35.587331 34.2472C 45.037331 32.0672 53.607431 27.5972 58.817431 24.4672C 54.377431 20.3772 50.507331 18.7472 47.087331 17.6172L 47.077331 17.6172ZM 32.697131 10C 27.217131 10 20.607131 18.67 17.287131 23.83C 21.047131 24.53 25.787131 24.51 32.917131 22.89C 38.817131 21.55 43.607131 19.48 47.077131 17.62C 44.607131 14.93 38.197131 10 32.697131 10ZM 69.546531 84.7578C 68.616531 85.6878 66.106531 87.1878 61.396531 88.9178C 61.966531 89.9178 62.486531 90.7978 62.806531 91.3378C 68.396531 100.6078 67.666531 102.8978 67.666531 102.8978C 70.416531 96.1178 69.236531 91.5878 69.546531 84.7578ZM 58.076831 83.07C 56.686831 72.81 51.076831 67.45 51.076831 67.45C 51.056831 67.22 51.036831 66.99 51.006831 66.77C 57.326831 65.82 66.126831 62.63 69.916831 60.25C 70.026831 64.19 70.026831 68.52 69.946831 72.95C 69.876831 76.89 69.736831 80.9 69.556831 84.77C 68.636831 85.69 66.116831 87.2 61.406831 88.93C 59.936831 86.38 58.086831 83.08 58.086831 83.08L 58.076831 83.07ZM 46.286631 56.5932C 46.676631 57.5732 47.046631 58.6932 47.506631 60.0032C 47.506631 60.0032 50.426631 62.6032 51.006631 66.7532C 57.326631 65.8032 66.126631 62.6132 69.916631 60.2332C 69.806631 56.0832 69.566631 52.3632 69.186631 49.4232C 68.716631 45.8632 68.026631 43.4332 67.066631 42.7732C 66.036631 42.0732 45.666631 48.3032 41.476631 50.8932C 44.316631 52.7332 45.386631 54.3232 46.286631 56.5832"></path></g></g></g><g id="g-root-cp_0j_g-0j_1hckx271vrs9ab-stroke" data-item-order="-435402" transform="translate(572.5570068359375, 192.56201171875)"><g id="cp_0j_g-0j_1hckx271vrs9ab-stroke" fill="none" stroke-linecap="round" stroke-linejoin="round" stroke-miterlimit="4" stroke="#ffffff" stroke-width="1" stroke-opacity="1"><g><path d="M 60.4854 88.7024C 62.1499 93.4717 63.5852 98.4523 64.7813 103.4228C 64.7912 103.453 64.8012 103.4631 64.8012 103.4631C 67.5423 96.6412 66.5256 92.0832 66.8346 85.2109C 67.014 81.317 67.1629 77.3054 67.2327 73.341C 67.3124 68.8836 67.3132 64.5012 67.2036 60.5368C 67.094 56.3612 66.8547 52.6182 66.476 49.66C 66.0075 46.078 65.3198 43.633 64.3629 42.9689C 64.4127 39.6384 63.9241 36.9673 63.047 34.5625C 62.1998 32.2181 61.004 30.1468 59.5488 28.0137C 58.5022 26.4742 57.3261 25.3976 56.14 24.5625C 51.7145 20.4472 47.8461 18.801 44.4372 17.6641C 41.9753 14.9574 35.5869 10 30.1048 10C 24.6427 10 18.0536 18.7206 14.7445 23.9125C 12.6713 27.1725 11.0466 30.6841 10 33.5919C 10.4685 34.3667 11.0377 35.1073 11.6955 35.8217C 15.0745 39.5244 20.8755 42.553 27.9822 45.7728C 28.8693 46.1753 29.766 46.5864 30.693 46.9888C 34.4407 48.649 37.0225 49.9417 38.8564 51.1391C 41.6872 52.9904 42.7537 54.5903 43.6507 56.8643C 44.0395 57.8503 44.4083 58.9873 44.8668 60.3054C 44.8668 60.3054 47.7764 62.9472 48.3545 67.1228C 48.3844 67.3442 48.4043 67.5756 48.4243 67.807C 48.4243 67.807 52.6205 69.8194 57.355 80.6861C 58.4813 83.272 59.5185 85.9354 60.4854 88.7024ZM 60.4854 88.7024C 64.0437 87.2635 66.0372 86.0159 66.8346 85.2109M 67.2036 60.5368C 63.426 62.9315 54.6539 66.1669 48.3545 67.1228M 64.3629 42.9689C 63.3363 42.2645 43.0328 48.5331 38.8564 51.1391M 63.047 34.5625C 61.1133 36.6352 57.8739 38.8589 52.8105 40.7203C 46.4115 43.0748 37.4412 45.4106 27.9822 45.7728M 11.6955 35.8217C 16.9982 36.4455 23.6652 36.5602 32.9847 34.3969C 42.4039 32.2034 50.947 27.7119 56.14 24.5625M 44.4372 17.6641C 40.9786 19.5356 36.2042 21.6184 30.3235 22.9666C 23.2167 24.5967 18.4922 24.6268 14.7445 23.9125"></path></g></g></g><g id="g-root-cp_0i_g-0i_18gxwtb1vrsa30-stroke" data-item-order="-435396" transform="translate(588.2849731445312, 250.366943359375)"><g id="cp_0i_g-0i_18gxwtb1vrsa30-stroke" fill="none" stroke-linecap="round" stroke-linejoin="round" stroke-miterlimit="4" stroke="#ffffff" stroke-width="1" stroke-opacity="1"><g><path d="M 53.7272 83.0969C 53.9564 75.8624 53.0394 65.4988 50.9563 54.4609C 53.4481 73.1659 48.0059 83.8515 44.8363 85.5822C 41.9458 87.1518 28.4599 79.6356 20.5957 70.6806C 25.4897 77.6736 24.9315 83.7811 37.1913 91.6193C 51.026 100.4535 53.3285 95.8855 53.7272 83.0969ZM 32.6963 10C 49.4614 46.9873 32.4172 71.8299 36.5238 83.1897C 40.3911 85.2624 43.5906 86.2686 44.8365 85.5945C 48.0161 83.8638 53.4483 73.1782 50.9565 54.4733C 48.953 43.848 45.8532 32.5888 41.627 22.8892C 36.8925 12.0124 32.6963 10.0101 32.6963 10.0101L 32.6963 10ZM 36.5238 83.1897C 32.4172 71.8299 49.4614 46.9873 32.6963 10C 39.6336 37.4889 20.7157 62.3819 18.4033 67.946C 19.2505 68.8818 19.9682 69.7874 20.5962 70.6929C 25.0815 75.8043 31.3906 80.4428 36.5238 83.1897ZM 32.6963 10C 32.6963 10 34.5695 22.2654 27.5127 32.7095C 20.3661 43.2845 14.4654 52.6923 10 61.0537C 13.2494 64.1729 17.2272 66.638 18.4033 67.946C 20.7058 62.3819 39.6336 37.4889 32.6963 10Z"></path></g></g></g><g id="g-root-cp_0h_g-0h_18gxwtb1vrsa31-stroke" data-item-order="-435390" transform="translate(570.0469360351562, 216.156005859375)"><g id="cp_0h_g-0h_18gxwtb1vrsa31-stroke" fill="none" stroke-linecap="round" stroke-linejoin="round" stroke-miterlimit="4" stroke="#ffffff" stroke-width="1" stroke-opacity="1"><g><path d="M 10.656461 71.5281C 11.722961 75.1 13.198061 78.4707 15.630161 82.0326C 17.643561 60.3796 22.537561 35.5973 30.491461 22.1748C 22.009261 18.3312 15.380961 14.7592 12.520361 10C 9.181261 19.8203 11.712961 27.3265 11.712961 27.3265C 10.297561 32.6693 9.270961 49.0701 10.656461 71.5281ZM 28.238661 95.2665C 32.704061 86.9052 38.604661 77.4974 45.751261 66.9224C 52.808161 56.4782 50.934361 44.2128 50.934361 44.2128C 50.605361 39.6347 47.375961 36.7268 47.375961 36.7268C 45.153261 30.3879 45.282861 28.7579 33.212361 23.405C 32.285361 22.9925 31.378361 22.59 30.481261 22.1875C 22.527361 35.5999 17.643361 60.3822 15.629961 82.0352C 18.351061 86.0197 22.278161 90.2356 28.238661 95.2665Z"></path></g></g></g><g id="g-root-cp_0g_g-0g_1414eov1vrsava-stroke" data-item-order="-435384" transform="translate(703.0470581054688, 207.116943359375)"><g id="cp_0g_g-0g_1414eov1vrsava-stroke" fill="none" stroke-linecap="round" stroke-linejoin="round" stroke-miterlimit="4" stroke="#ffffff" stroke-width="1" stroke-opacity="1"><g><path d="M 45.911239 97.6699C 44.195139 93.946 42.793139 90.0775 41.675239 86.1484C 40.223939 81.0367 39.292439 75.8858 38.782539 71.0282C 36.899739 86.3048 33.869739 91.6706 33.869739 91.6706C 33.869739 91.6706 33.967839 78.7105 31.408539 67.2555C 29.221839 57.4817 27.064039 49.6582 29.368439 44.7517C 30.790239 41.7414 35.801039 40.1385 38.468239 43.8232C 39.399839 45.1134 40.037639 47.047 40.145439 49.8033C 40.400439 49.1191 41.626139 46.3433 46.117239 42.2188C 48.039239 40.4595 50.549139 38.4476 53.843839 36.2583C 56.618939 34.411 59.541139 32.6322 62.541739 30.9315C 61.914139 29.7782 61.217939 28.6346 60.433439 27.5009C 59.403839 26.0055 58.257439 24.9595 57.090539 24.1482C 52.736739 20.1507 48.931439 18.5521 45.577839 17.4477C 43.155839 14.8185 36.870239 10 31.477039 10C 26.103439 10 19.622339 18.4794 16.366739 23.5227C 14.327139 26.6894 12.728339 30.105 11.698639 32.9297C 8.413739 42.469 10.904439 49.7603 10.904439 49.7603C 9.227639 74.5566 25.485539 104.6778 29.466739 106.7889C 34.555939 106.1145 40.743539 101.9411 45.901439 97.6699L 45.911239 97.6699ZM 45.911239 97.6699C 44.195139 93.946 42.802739 90.0463 41.684839 86.1172C 41.684839 86.1563 41.694639 86.1856 41.704439 86.2247C 38.341039 95.4317 34.663839 96.9564 29.466739 106.7889C 34.555939 106.1145 40.743539 101.9411 45.901439 97.6699L 45.911239 97.6699ZM 38.782539 71.0282C 36.899739 86.3048 33.869739 91.6706 33.869739 91.6706C 33.869739 91.6706 33.967839 78.7105 31.408539 67.2555C 29.221839 57.4817 27.064539 49.6626 29.368939 44.7561C 21.024039 41.0225 14.512939 37.5527 11.698639 32.9297C 8.413739 42.469 10.904439 49.7603 10.904439 49.7603C 9.227639 74.5566 25.475939 104.6894 29.457139 106.8006C 34.654239 96.9583 38.331439 95.4433 41.694839 86.2266C 41.694839 86.207 41.694839 86.1777 41.675239 86.1484C 40.223939 81.0367 39.272839 75.8761 38.762939 71.0184L 38.782539 71.0282ZM 38.468739 43.8217C 39.400239 45.1118 40.037639 47.047 40.145439 49.8033C 40.400439 49.1191 41.626139 46.3433 46.117239 42.2188C 43.714839 42.8345 41.145739 43.3916 38.468739 43.8217ZM 60.433439 27.5009C 59.403839 26.0055 58.246739 24.9597 57.079839 24.1484C 51.970939 27.2077 43.567339 31.5766 34.300739 33.7073C 25.142039 35.8087 18.572139 35.6914 13.355439 35.0854C 16.679639 38.6822 22.376839 41.6241 29.368439 44.7517C 30.790239 41.7414 35.801039 40.1385 38.468239 43.8232C 41.145239 43.3932 43.714439 42.8361 46.116839 42.2203C 48.038839 40.461 50.549139 38.4476 53.843839 36.2583C 56.618939 34.411 59.541139 32.6322 62.541739 30.9315C 61.914139 29.7782 61.208139 28.6444 60.423639 27.5106L 60.433439 27.5009ZM 45.578439 17.4531C 42.175839 19.2711 37.478839 21.2943 31.693339 22.604C 24.701739 24.1873 20.053739 24.2166 16.366739 23.5227C 14.327139 26.6894 12.728739 30.1005 11.699139 32.9252C 12.160039 33.6777 12.708239 34.3915 13.355439 35.0854C 18.572139 35.6914 25.143039 35.8085 34.311539 33.7071C 43.578039 31.5764 51.981739 27.2074 57.090539 24.1482C 52.736739 20.1507 48.941839 18.5576 45.588239 17.4531L 45.578439 17.4531ZM 31.477039 10C 26.103439 10 19.621739 18.4739 16.366139 23.5173C 20.053139 24.2014 24.701139 24.1819 31.692739 22.5985C 37.478239 21.2888 42.175239 19.2656 45.577839 17.4477C 43.155839 14.8185 36.870239 10 31.477039 10Z"></path></g></g></g><g id="g-root-cp_0f_g-0f_qqaden1vrs9af-stroke" data-item-order="-435378" transform="translate(709.52099609375, 215.234130859375)"><g id="cp_0f_g-0f_qqaden1vrs9af-stroke" fill="none" stroke-linecap="round" stroke-linejoin="round" stroke-miterlimit="4" stroke="#ffffff" stroke-width="1" stroke-opacity="1"><g><path d="M 32.317839 62.919091C 31.425439 54.327891 31.935439 46.674991 33.622039 41.856391C 33.622039 41.856391 33.641639 41.895491 33.690639 41.963991C 33.435639 31.026991 24.826139 32.541991 22.904139 36.637191C 20.599739 41.543691 22.757139 49.362791 24.943839 59.136591C 27.503139 70.591591 27.405039 83.551791 27.405039 83.551791C 27.405039 83.551791 30.444939 78.195691 32.317839 62.919091ZM 24.7277 58.562378C 24.7277 58.562378 19.4423 59.139078 17.5498 59.383378C 16.0103 60.673578 14.461 61.973478 12.3135 63.058378M 24.051 55.269678C 24.051 55.269678 19.2264 53.090078 17.3535 52.679578C 15.461 53.363778 13.6959 54.380178 11.166 54.341078M 22.9038 50.713278C 22.9038 50.713278 19.3443 46.686478 17.5008 45.992578C 15.4906 45.992578 13.4804 46.344378 11.1172 45.445178M 10 12.929278C 16.8053 10.153478 23.6106 15.099078 26.8465 33.415278M 20.3154 10.008578C 27.4933 9.725078 32.1413 16.371378 29.327 33.759078"></path></g></g></g><g id="g-root-cp_0d_g-0d_magva71vrsa2o-stroke" data-item-order="-435372" transform="translate(731.39697265625, 204.875)"><g id="cp_0d_g-0d_magva71vrsa2o-stroke" fill="none" stroke-linecap="round" stroke-linejoin="round" stroke-miterlimit="4" stroke="#ffffff" stroke-width="1" stroke-opacity="1"><g><path d="M 55.8825 74.1686C 51.6856 72.7221 46.665 70.8064 40.5657 68.7344C 55.6374 80.5119 59.1675 85.2327 52.3622 93.7457C 44.7626 103.2557 35.0842 119.2555 24.3174 111.2116C 37.8495 128.3354 52.9408 110.0192 67.3358 89.8361C 70.4148 85.5161 62.423 78.6939 55.8727 74.1686L 55.8825 74.1686ZM 24.3169 111.2138C 35.0837 119.2479 44.7719 103.2579 52.3617 93.7479C 59.1572 85.2349 55.6369 80.5141 40.5652 68.7366C 40.5652 68.7366 37.0057 67.5344 35.0739 66.9284C 17.3547 61.3182 11.736 52.2188 11.736 52.2188C 7.6371 63.9669 10.4808 92.5262 23.6599 110.3928C 23.8756 110.686 24.0913 110.9401 24.3169 111.2236L 24.3169 111.2138ZM 85.4667 57.3286C 78.181 55.6964 43.7329 37.82 11.7363 52.2169C 11.7363 52.2169 17.3551 61.3163 35.0743 66.9265C 55.0881 73.26 64.59 78.9973 71.7581 75.9478C 78.9262 72.8984 83.28 60.1728 85.4667 57.3286ZM 100.1167 31.8438C 87.1631 39.311 53.1858 23.7314 11.7363 52.2223C 43.7427 37.8253 78.181 55.7018 85.4667 57.334C 86.4179 56.0927 87.3788 55.0274 88.33 54.0597C 93.586 47.4624 97.8711 38.7246 100.1069 31.8438L 100.1167 31.8438ZM 11.7363 52.2118C 53.1858 23.7308 87.1631 39.311 100.1167 31.8438C 101.8033 26.6538 102.3426 22.509 101.2443 21.1309C 98.4399 17.6025 84.241 13.2239 61.9718 20.2904C 49.4497 25.0307 36.4079 31.2371 25.494 38.4991C 13.266 46.6407 11.7363 52.2118 11.7363 52.2118ZM 96.2824 10.7589C 87.4081 12.0295 74.9742 15.3721 61.9814 20.2884C 84.2408 13.2219 98.4495 17.6103 101.254 21.1289C 103.8035 24.3348 97.567 42.4848 88.3495 54.0571C 95.8117 46.5508 103.3819 45.9252 110.2754 29.2119C 118.0515 10.3581 111.9718 8.5011 96.302 10.7589L 96.2824 10.7589Z"></path></g></g></g><g id="g-root-cp_0c_g-0c_detv1b1vrsavd-stroke" data-item-order="-435366" transform="translate(919.60400390625, 118.5)"><g id="cp_0c_g-0c_detv1b1vrsavd-stroke" fill="none" stroke-linecap="round" stroke-linejoin="round" stroke-miterlimit="4" stroke="#ffffff" stroke-width="1" stroke-opacity="1"><g><path d="M 27.441834 58.046888C 27.479234 56.896988 28.012534 52.171388 33.144334 44.374488C 32.863934 41.382888 30.611134 38.054688 27.442234 38.054688C 24.273434 38.054688 22.030034 41.382888 21.740234 44.374488C 26.872134 52.162088 27.404534 56.887587 27.441834 58.046888ZM 27.441834 58.046888C 27.385834 61.935987 26.058434 67.218087 23.674834 72.967588C 25.376034 83.634588 27.441834 92.628188 27.441834 92.628188C 27.441834 92.628188 29.507734 83.634588 31.209034 72.967588C 28.834734 67.218087 27.497934 61.935987 27.441834 58.046888ZM 44.885 10.283C 36.2758 8.4039 29.2744 15.6866 29.2744 38.0583M 10 10.283C 18.6092 8.4039 25.6106 15.6866 25.6106 38.0583"></path></g></g></g><g id="g-root-cp_0b_g-0b_8zmtzz1vrs8hu-stroke" data-item-order="-435360" transform="translate(857.0469360351562, 98)"><g id="cp_0b_g-0b_8zmtzz1vrs8hu-stroke" fill="none" stroke-linecap="round" stroke-linejoin="round" stroke-miterlimit="4" stroke="#ffffff" stroke-width="1" stroke-opacity="1"><g><path d="M 136.262061 83.9078C 132.074261 83.9826 126.998461 83.8891 120.913161 84.0106C 138.094161 89.6293 142.749261 92.6863 139.477661 102.4558C 135.822661 113.3753 132.410761 130.736 120.258861 127.0619C 137.813761 137.9346 145.263761 116.7595 151.498661 94.1447C 152.835361 89.3021 143.534461 85.8149 136.262061 83.8984L 136.262061 83.9078ZM 120.267761 127.0721C 132.419761 130.7462 135.831561 113.3854 139.486561 102.466C 142.758261 92.6965 138.103061 89.6301 120.922161 84.0208C 120.922161 84.0208 117.379361 84.1049 115.463161 84.1797C 97.936261 84.9089 90.000061 78.6172 90.000061 78.6172C 90.168361 90.3967 101.946361 114.9 119.417161 126.5392C 119.706961 126.7356 119.977961 126.8945 120.267761 127.0628L 120.267761 127.0721ZM 157.050361 59.3672C 150.058261 60.2647 113.714661 55.4781 89.990261 78.6164C 89.990261 78.6164 97.926461 84.9082 115.453261 84.1789C 135.260961 83.3563 145.543361 85.3943 150.908961 80.3646C 156.283861 75.335 156.022061 62.6019 157.040961 59.3672L 157.050361 59.3672ZM 161.790061 31.9453C 152.722861 42.7712 117.538261 39.8825 90.000061 78.6146C 113.724361 55.4669 150.068161 60.2535 157.060161 59.3654C 157.508861 57.9537 158.004261 56.6916 158.546461 55.523C 161.070261 47.9598 162.042461 38.798 161.799361 31.9453L 161.790061 31.9453ZM 90.000061 78.6146C 117.538261 39.8825 152.722861 42.7712 161.790061 31.9453C 161.612461 26.7848 160.733561 22.9241 159.322061 22.0546C 155.695161 19.8202 141.683061 20.5121 124.221561 33.9837C 114.649561 42.2387 105.086961 51.9802 97.758361 61.9647C 89.551161 73.1553 89.990461 78.615 89.990461 78.615L 90.000061 78.6146ZM 151.563661 14.4277C 144.104161 18.429 134.158261 25.4126 124.221761 33.9854C 141.683161 20.5138 155.695261 19.822 159.322161 22.0563C 162.621861 24.085 162.967761 42.2591 158.536961 55.5251C 162.724661 46.438 169.239961 43.4371 169.931761 26.3381C 170.716961 7.0421 164.734461 7.36 151.563661 14.4277ZM 43.729361 83.9078C 43.912261 83.9111 43.542961 83.9051 43.729361 83.9078C 47.808561 83.966 53.258761 83.8944 59.078161 84.0106C 41.897261 89.6293 37.242061 92.6863 40.513761 102.4558C 44.168661 113.3753 47.580561 130.736 59.732561 127.0619C 42.177661 137.9346 34.727561 116.7595 28.492661 94.1447C 27.155961 89.3021 36.456861 85.8243 43.729361 83.9078ZM 59.732561 127.0721C 47.580561 130.7462 44.168661 113.3854 40.513761 102.466C 37.242061 92.6965 41.897261 89.6301 59.078161 84.0208C 59.078161 84.0208 62.620961 84.1049 64.537161 84.1797C 82.064061 84.9089 90.000061 78.6172 90.000061 78.6172C 89.831761 90.3967 78.053961 114.9 60.583161 126.5392C 60.293361 126.7356 60.022361 126.8936 59.732561 127.0619L 59.732561 127.0721ZM 18.200761 31.9453C 27.267961 42.7712 62.452361 39.8828 89.990461 78.615C 66.266161 55.4673 29.922761 60.2535 22.930661 59.3654C 22.481961 57.9537 21.986561 56.6916 21.444461 55.523C 18.920561 47.9598 17.948461 38.798 18.191461 31.9453L 18.200761 31.9453ZM 90.000061 78.6146C 62.461861 39.8825 27.277261 42.7716 18.210061 31.9457C 18.387661 26.7851 19.266361 22.9241 20.677861 22.0546C 24.304661 19.8202 38.316861 20.5121 55.778261 33.9837C 65.350261 42.2387 74.912861 51.9802 82.241461 61.9647C 90.448661 73.1553 90.009361 78.615 90.009361 78.615L 90.000061 78.6146ZM 28.436361 14.4277C 35.895861 18.429 45.841761 25.4126 55.778261 33.9854C 38.316861 20.5138 24.304761 19.822 20.677861 22.0563C 17.378161 24.085 17.032261 42.2591 21.463061 55.5251C 17.275361 46.438 10.760061 43.4371 10.068261 26.3381C 9.283061 7.0421 15.265561 7.36 28.436361 14.4277ZM 43.729361 83.9078C 36.782561 83.7839 32.098261 83.1931 29.080961 80.3646C 23.706061 75.335 23.967761 62.6019 22.948861 59.3672L 22.939561 59.3672C 29.931561 60.2647 66.275761 55.4789 90.000061 78.6172C 90.000061 78.6172 82.063461 84.9082 64.536561 84.1789"></path></g></g></g><g id="g-root-tx_modlesia_dikpjz1vrs8w2-stroke" data-item-order="0" transform="translate(566, 352.39990234375)"></g><g id="g-root-tx_valuatio_hzn5un1vrsa9y-stroke" data-item-order="0" transform="translate(885, 232.39990234375)"></g><g id="g-root-tx_besoinse_18itc2n1vrs93g-stroke" data-item-order="0" transform="translate(50, 340.39990234375)"></g><g id="g-root-tx_collecte_4l2a1r1vrsaoe-stroke" data-item-order="0" transform="translate(206, 346.39990234375)"></g><g id="g-root-tx_tableaud_1d1r7mn1vrs9ho-stroke" data-item-order="0" transform="translate(710, 328.39990234375)"></g><g id="g-root-tx_nettoyag_18k2a8v1vrsb9k-stroke" data-item-order="0" transform="translate(386, 352.39990234375)"></g></g></g><path id="w1q5pobj1xpo171" d="M65.283 12.757a.35.35 0 0 0 .584.157l5.203-5.141-6.183 3.523.396 1.461zm-2.216-11.7a.35.35 0 0 0-.522.305v3.111l3.276-1.868-2.754-1.548zm3.728 2.105l-4.25 2.421v2.445l6.391-3.644-2.141-1.222zm4.708 3.303a.35.35 0 0 0 0-.609l-1.592-.9-7.365 4.199v1.782a.35.35 0 0 0 .523.305l8.435-4.777z M44.542 2.513c0-.433.355-.783.792-.783s.792.35.792.783-.355.783-.792.783-.792-.35-.792-.783zm59.171 0c0-.433.355-.783.792-.783s.792.35.792.783-.355.783-.792.783-.792-.35-.792-.783zm-85.951 7.636h-1.27v-.487c-.276.201-.864.609-1.881.609-1.202 0-2.274-.794-2.137-2.078.118-1.106 1.153-1.584 1.848-1.727l2.17-.345c0-.539-.29-.956-1.064-1.006s-1.21.305-1.571 1.017l-1.124-.605c1.218-2.631 5.029-1.764 5.029.414v4.207zm-1.27-2.86c.006.396-.062 1.112-.819 1.59-.587.37-1.841.299-1.903-.395-.049-.555.461-.791.906-.898l1.816-.297zm72.662 2.86h-1.27v-.487c-.276.201-.864.609-1.881.609-1.202 0-2.274-.794-2.137-2.078.118-1.106 1.153-1.584 1.848-1.727l2.17-.345c0-.539-.29-.956-1.064-1.006s-1.21.305-1.571 1.017l-1.124-.605c1.218-2.631 5.029-1.764 5.029.414v4.207zm-1.27-2.86c.006.396-.062 1.112-.82 1.59-.587.37-1.841.299-1.903-.395-.049-.555.461-.791.906-.898l1.816-.297zM99.096 10.149H97.85v-8.45h1.246v4.895l2.68-2.559h1.738l-2.633 2.535 2.715 3.578h-1.556l-2.077-2.707-.867.844v1.863zm6.053-6.114h-1.255v6.113h1.255V4.035zm-59.2 0h-1.255v6.113h1.255V4.035zm5.584 6.113V1.697h1.255v2.695c.361-.346 1-.485 1.47-.485 1.452 0 2.477 1.082 2.457 2.448v3.792h-1.27v-3.68c0-.408-.214-1.339-1.315-1.339-.968 0-1.342.756-1.342 1.339v3.681h-1.255zm-4.76-4.894V4.039h.621a.45.45 0 0 0 .45-.45v-.855h1.251v1.305h1.309v1.215h-1.309v3.109c0 .293.105.664.648.664.365 0 .531-.035.736-.07v1.137s-.361.113-.857.113c-1.398 0-1.777-1.051-1.777-1.788V5.254h-1.071zM36.528 4.039h-1.394l2.191 6.106h1.125l1.234-3.918 1.238 3.918h1.129l2.188-6.106h-1.383l-1.359 3.93-1.256-3.93h-1.124l-1.242 3.957-1.348-3.957zM26.212 7.141c-.02 1.566 1.187 3.129 3.223 3.129 1.566 0 2.383-.918 2.734-1.719L31.172 8c-.315.399-.801 1.094-1.738 1.094-1.145 0-1.825-.781-1.891-1.52h4.625c.074-.284.148-.995-.03-1.559-.336-1.064-1.221-2.102-2.839-2.102s-3.088 1.152-3.088 3.227zm1.363-.75h3.348c-.055-.43-.566-1.301-1.623-1.301a1.79 1.79 0 0 0-1.725 1.301zm-8.758.75c.038 1.758 1.277 3.133 3.145 3.133 1.074 0 1.723-.477 1.961-.672v.547h1.242V1.703h-1.258v2.888c-.414-.36-1.062-.68-1.93-.68-1.91 0-3.198 1.473-3.16 3.23zm1.309-.08c0 1.119.723 1.978 1.836 1.978a1.88 1.88 0 0 0 1.94-1.904c0-1.371-1.011-1.99-1.972-1.99s-1.805.798-1.805 1.916zm76.683-.028C96.771 5.275 95.532 3.9 93.664 3.9c-1.074 0-1.723.477-1.961.672v-.547h-1.242v8.22h1.258V9.583c.414.36 1.063.68 1.93.68 1.91 0 3.198-1.473 3.16-3.23zm-1.309.08c0-1.119-.723-1.978-1.836-1.978a1.88 1.88 0 0 0-1.94 1.904c0 1.371 1.011 1.99 1.972 1.99S95.5 8.231 95.5 7.113zM106.441 10.173V4.036h1.254v.382c.361-.346 1-.485 1.47-.485 1.452 0 2.477 1.082 2.457 2.448v3.792h-1.27V6.492c0-.408-.214-1.339-1.315-1.339-.969 0-1.342.756-1.342 1.339v3.681h-1.254zm-30.383-.021V1.824h1.084l4.215 5.777V1.824h1.32v8.328h-1.094l-4.207-5.796v5.796h-1.319zM5.24 10.149H4V2.377h1.014l2.664 3.597 2.654-3.592h1.03v7.766h-1.256V4.762L7.678 8.068 5.24 4.742v5.407z" transform="translate(920, 554)" fill="#80808088" stroke="none"></path></svg>